<?xml version="1.0" encoding="UTF-8" standalone="no"?>
<!-- Created with Inkscape (http://www.inkscape.org/) -->

<svg
   xmlns:dc="http://purl.org/dc/elements/1.1/"
   xmlns:cc="http://creativecommons.org/ns#"
   xmlns:rdf="http://www.w3.org/1999/02/22-rdf-syntax-ns#"
   xmlns:svg="http://www.w3.org/2000/svg"
   xmlns="http://www.w3.org/2000/svg"
   xmlns:sodipodi="http://sodipodi.sourceforge.net/DTD/sodipodi-0.dtd"
   xmlns:inkscape="http://www.inkscape.org/namespaces/inkscape"
   width="398.61658"
   height="82.187424"
   id="svg3300"
   version="1.1"
   inkscape:version="0.48.5 r10040"
   sodipodi:docname="logo_pagina.svg">
  <defs
     id="defs3302" />
  <sodipodi:namedview
     id="base"
     pagecolor="#ffffff"
     bordercolor="#666666"
     borderopacity="1.0"
     inkscape:pageopacity="0.0"
     inkscape:pageshadow="2"
     inkscape:zoom="1.4"
     inkscape:cx="59.76834"
     inkscape:cy="34.116965"
     inkscape:document-units="px"
     inkscape:current-layer="layer1"
     showgrid="false"
     fit-margin-top="0"
     fit-margin-left="0"
     fit-margin-right="0"
     fit-margin-bottom="0"
     inkscape:window-width="1920"
     inkscape:window-height="1018"
     inkscape:window-x="-8"
     inkscape:window-y="-8"
     inkscape:window-maximized="1" />
  <metadata
     id="metadata3305">
    <rdf:RDF>
      <cc:Work
         rdf:about="">
        <dc:format>image/svg+xml</dc:format>
        <dc:type
           rdf:resource="http://purl.org/dc/dcmitype/StillImage" />
        <dc:title />
      </cc:Work>
    </rdf:RDF>
  </metadata>
  <g
     inkscape:label="Capa 1"
     inkscape:groupmode="layer"
     id="layer1"
     transform="translate(-209.26314,-196.98276)">
    <rect
       ry="0"
       y="196.98276"
       x="209.26314"
       height="82.151901"
       width="65.5"
       id="rect3332"
       style="fill:#ffaa00;fill-opacity:1;stroke:none" />
    <rect
       y="197.01828"
       x="274.7944"
       height="82.151901"
       width="333.08533"
       id="rect3376"
       style="fill:#333333;fill-opacity:1;stroke:none" />
    <g
       style="font-size:40px;font-style:normal;font-weight:normal;line-height:125%;letter-spacing:0px;word-spacing:0px;fill:#ffffff;fill-opacity:1;stroke:none;font-family:Sans"
       id="text3117-9">
      <path
         d="m 449.35737,217.79421 c -4.5933,3e-5 -9.16657,3e-5 -13.71983,0 l 0,4.91994 8.43989,0 0,11.11986 c 0.007,2.16998 -0.56667,3.95995 -1.71997,5.36993 -1.15334,1.40999 -2.92665,2.13998 -5.31993,2.18997 -2.37749,-0.002 -4.15246,-0.60832 -5.32494,-1.81998 -1.17249,-1.21164 -1.75748,-3.01828 -1.75497,-5.41993 l -5.19994,0 c 0.0642,3.97329 1.21582,6.99658 3.45496,9.06989 2.23913,2.0733 5.18076,3.11662 8.82489,3.12996 3.89076,-0.0692 6.90905,-1.25082 9.05488,-3.54496 2.14578,-2.29413 3.2341,-5.28575 3.26496,-8.97488 l 0,-16.0398 z"
         style="fill:#ffffff;font-family:Nexa Bold;-inkscape-font-specification:Nexa Bold"
         id="path3098" />
      <path
         d="m 473.63492,217.83421 0,16.0398 c -0.0125,2.42164 -0.60751,4.30828 -1.78498,5.65992 -1.1775,1.35166 -2.86248,2.03832 -5.05493,2.05998 -2.20915,-0.007 -3.9608,-0.66332 -5.25494,-1.96998 -1.29415,-1.30664 -1.95581,-3.22328 -1.98497,-5.74992 l 0,-16.0398 -5.23993,0 0,16.0398 c 0.0983,4.21412 1.33164,7.35574 3.69995,9.42487 2.3683,2.06915 5.28159,3.1008 8.73989,3.09497 3.58493,-0.004 6.48489,-1.05582 8.69989,-3.15496 2.21494,-2.09914 3.35493,-5.22076 3.41995,-9.36488 l 0,-16.0398 z"
         style="fill:#ffffff;font-family:Nexa Bold;-inkscape-font-specification:Nexa Bold"
         id="path3100" />
      <path
         d="m 504.8824,240.59392 -15.7198,0 0,-6.31992 15.15981,0 0,-4.91993 -15.15981,0 0,-6.43992 15.7198,0 0,-5.11994 -20.95973,0 c 0,4.66163 0,9.32824 0,13.99982 0,4.67162 0,9.33822 0,13.99982 l 20.95973,0 z"
         style="fill:#ffffff;font-family:Nexa Bold;-inkscape-font-specification:Nexa Bold"
         id="path3102" />
      <path
         d="m 533.00423,221.27417 c -1.45834,-1.42079 -3.08165,-2.48911 -4.86993,-3.20496 -1.78833,-0.7158 -3.63164,-1.07412 -5.52993,-1.07499 -3.29306,0.0413 -6.03574,0.76768 -8.22804,2.17924 -2.19233,1.41161 -3.83576,3.26096 -4.93031,5.54807 -1.09456,2.28715 -1.64171,4.76465 -1.64146,7.4325 -0.0121,2.49331 0.48765,4.81772 1.49924,6.97324 1.01159,2.15553 2.60761,3.90218 4.78808,5.23993 2.18046,1.33777 5.01795,2.02664 8.51249,2.06665 2.44495,-0.0125 4.57492,-0.4575 6.38992,-1.33499 1.81495,-0.87748 3.40493,-2.11247 4.76993,-3.70495 l 0,-11.79985 -11.99984,0 0,4.71994 7.15991,0 0,4.95994 c -1.08834,0.86333 -2.14166,1.45665 -3.15996,1.77997 -1.01834,0.32334 -2.07166,0.47667 -3.15996,0.46 -3.44664,-0.1025 -5.92327,-1.08748 -7.42991,-2.95496 -1.50665,-1.86747 -2.24331,-4.00244 -2.20997,-6.40492 0.0267,-2.94995 0.88332,-5.38991 2.56997,-7.31991 1.68663,-1.92995 4.04327,-2.92993 7.06991,-2.99996 1.24663,0.004 2.50328,0.24586 3.76995,0.72499 1.26663,0.47919 2.38328,1.17084 3.34996,2.07498 z"
         style="fill:#ffffff;font-family:Nexa Bold;-inkscape-font-specification:Nexa Bold"
         id="path3104" />
      <path
         d="m 551.225,217.23422 c -3.22516,0.046 -5.90364,0.77632 -8.03545,2.19108 -2.13183,1.41483 -3.72588,3.2385 -4.78216,5.47104 -1.05629,2.23259 -1.58369,4.59848 -1.58221,7.09769 -0.004,2.49529 0.51111,4.83353 1.54665,7.01473 1.03554,2.18121 2.61774,3.95353 4.74661,5.31696 2.12885,1.36344 4.83103,2.06615 8.10656,2.10813 3.27352,-0.0447 5.96632,-0.75975 8.07841,-2.14516 2.11205,-1.38541 3.6819,-3.17304 4.70957,-5.3629 1.02761,-2.18984 1.55156,-4.51375 1.57183,-6.97176 0.0264,-2.48612 -0.48866,-4.84263 -1.54516,-7.06954 -1.05656,-2.22686 -2.65308,-4.04708 -4.78957,-5.46067 -2.13654,-1.41353 -4.81156,-2.1434 -8.02508,-2.1896 z m 0,4.79994 c 3.27411,0.12169 5.63574,1.19834 7.08491,3.22996 1.44912,2.03166 2.14078,4.28829 2.07497,6.76991 -0.004,2.41081 -0.71585,4.57912 -2.13497,6.50492 -1.41917,1.92581 -3.76081,2.94413 -7.02491,3.05496 -3.2633,-0.10916 -5.6066,-1.12082 -7.02991,-3.03496 -1.42332,-1.91414 -2.14664,-4.07577 -2.16997,-6.48492 -0.0817,-2.48329 0.61165,-4.74659 2.07997,-6.78991 1.46831,-2.04329 3.84161,-3.12661 7.11991,-3.24996 z"
         style="fill:#ffffff;font-family:Nexa Bold;-inkscape-font-specification:Nexa Bold"
         id="path3106" />
      <path
         d="m 590.95114,222.39416 c -1.11334,-2.12162 -2.66665,-3.58827 -4.65994,-4.39995 -1.99332,-0.81163 -4.10663,-1.19829 -6.33992,-1.15998 -2.70914,-0.002 -5.16077,0.64252 -7.3549,1.93497 -2.19414,1.29251 -3.35579,3.36748 -3.48496,6.22492 0.10083,3.05831 1.21915,5.17162 3.35496,6.33992 2.1358,1.16833 4.6841,1.88166 7.6449,2.13997 1.89746,0.18168 3.44244,0.58834 4.63494,1.21999 1.19247,0.63167 1.80746,1.59832 1.84498,2.89996 -0.0608,1.50499 -0.71918,2.58497 -1.97498,3.23996 -1.25583,0.65499 -2.74414,0.97499 -4.46494,0.95999 -1.73832,0.007 -3.32163,-0.3475 -4.74994,-1.06499 -1.42832,-0.71749 -2.47164,-1.84247 -3.12996,-3.37496 l -4.39994,2.27997 c 1.06082,2.52664 2.63913,4.31328 4.73494,5.35993 2.0958,1.04666 4.5841,1.55332 7.4649,1.51998 3.21994,0.0183 5.95991,-0.68832 8.2199,-2.11997 2.25994,-1.43164 3.43993,-3.69828 3.53995,-6.79991 -0.10502,-3.24911 -1.25501,-5.48075 -3.44996,-6.69492 -2.19499,-1.21413 -4.80495,-1.95579 -7.82989,-2.22497 -1.72999,-0.16914 -3.18997,-0.50081 -4.37995,-0.99498 -1.18999,-0.49415 -1.80998,-1.3358 -1.85997,-2.52497 -0.003,-1.06496 0.47332,-1.94495 1.42998,-2.63997 0.95664,-0.69496 2.41329,-1.05496 4.36994,-1.07998 1.54663,0.03 2.91328,0.35002 4.09995,0.95999 1.18663,0.61001 2.03329,1.33 2.53997,2.15997 z"
         style="fill:#ffffff;font-family:Nexa Bold;-inkscape-font-specification:Nexa Bold"
         id="path3108" />
    </g>
    <g
       style="font-size:40px;font-style:normal;font-weight:normal;line-height:125%;letter-spacing:0px;word-spacing:0px;fill:#ffaa00;fill-opacity:1;stroke:none;font-family:Sans"
       id="text3051-9">
      <path
         d="m 316.10738,221.23041 c -1.45834,-1.42079 -3.08165,-2.48911 -4.86993,-3.20496 -1.78833,-0.7158 -3.63164,-1.07413 -5.52993,-1.07499 -3.29306,0.0413 -6.03574,0.76768 -8.22805,2.17923 -2.19232,1.41161 -3.83575,3.26097 -4.9303,5.54808 -1.09456,2.28715 -1.64171,4.76465 -1.64146,7.4325 -0.0121,2.49331 0.48764,4.81772 1.49924,6.97324 1.01159,2.15553 2.60761,3.90217 4.78808,5.23993 2.18046,1.33776 5.01795,2.02664 8.51249,2.06664 2.44495,-0.0125 4.57492,-0.45749 6.38992,-1.33498 1.81495,-0.87749 3.40493,-2.11247 4.76993,-3.70495 l 0,-11.79985 -11.99984,0 0,4.71994 7.15991,0 0,4.95994 c -1.08834,0.86332 -2.14166,1.45665 -3.15996,1.77997 -1.01834,0.32333 -2.07166,0.47667 -3.15996,0.46 -3.44664,-0.1025 -5.92327,-1.08748 -7.42991,-2.95497 -1.50665,-1.86746 -2.24331,-4.00243 -2.20997,-6.40491 0.0267,-2.94995 0.88332,-5.38991 2.56997,-7.31991 1.68663,-1.92995 4.04327,-2.92994 7.06991,-2.99996 1.24663,0.004 2.50328,0.24585 3.76995,0.72499 1.26663,0.47918 2.38328,1.17084 3.34996,2.07497 z"
         style="fill:#ffaa00;font-family:Nexa Bold;-inkscape-font-specification:Nexa Bold"
         id="path3111" />
      <path
         d="m 343.40803,245.75009 5.75993,0 -12.55984,-27.99964 -5.75993,0 -12.55983,27.99964 5.71992,0 2.39997,-5.27993 14.63981,0 z m -4.47994,-10.19987 -10.39987,0 5.19994,-11.91984 z"
         style="fill:#ffaa00;font-family:Nexa Bold;-inkscape-font-specification:Nexa Bold"
         id="path3113" />
      <path
         d="m 375.48988,245.79009 5.27993,0 0,-27.99964 -6.03992,0 -8.75989,12.03985 -8.75989,-12.03985 -6.07992,0 0,27.99964 5.27993,0 0,-20.35974 8.91989,12.19985 1.03999,0 9.11988,-12.15985 z"
         style="fill:#ffaa00;font-family:Nexa Bold;-inkscape-font-specification:Nexa Bold"
         id="path3115" />
      <path
         d="m 407.93928,245.75009 5.75993,0 -12.55984,-27.99964 -5.75993,0 -12.55983,27.99964 5.71992,0 2.39997,-5.27993 14.63981,0 z m -4.47994,-10.19987 -10.39987,0 5.19994,-11.91984 z"
         style="fill:#ffaa00;font-family:Nexa Bold;-inkscape-font-specification:Nexa Bold"
         id="path3117" />
    </g>
    <g
       id="g4370"
       transform="translate(-156.70561,-705.69192)">
      <g
         style="fill:#ffffff;stroke:none"
         id="g3502"
         transform="matrix(0.125,0,0,0.125,368.55055,853.87148)">
        <path
           style="fill:#ffffff;fill-opacity:1;stroke:none"
           sodipodi:nodetypes="cccccc"
           inkscape:connector-curvature="0"
           id="path3504"
           d="m 144.49183,500.98763 80.62741,-60.20086 80.62742,60.20086 -34.493,342.01325 -89.68184,0 z" />
        <path
           d="m 146.70414,503.14704 73.78874,-53.68779 0.64659,384.57843 -36.53699,0 z"
           id="path3506"
           inkscape:connector-curvature="0"
           sodipodi:nodetypes="ccccc"
           style="fill:#ff8b00;fill-opacity:1;stroke:none" />
        <rect
           ry="7.430459"
           y="786.98956"
           x="97.898521"
           height="56.314835"
           width="255.70543"
           id="rect3526"
           style="fill:#ffffff;fill-opacity:1;stroke:none" />
        <path
           transform="matrix(0.89089222,0,0,0.87756153,19.214133,405.26413)"
           d="m 298.71654,629.76343 c 0,34.96786 -28.6701,63.31492 -64.03646,63.31492 -35.36635,0 -64.03645,-28.34706 -64.03645,-63.31492 0,-34.96787 28.6701,-63.31492 64.03645,-63.31492 35.36636,0 64.03646,28.34705 64.03646,63.31492 z"
           sodipodi:ry="63.314919"
           sodipodi:rx="64.036453"
           sodipodi:cy="629.76343"
           sodipodi:cx="234.68008"
           id="path3528"
           style="fill:#ffffff;fill-opacity:1;stroke:none"
           sodipodi:type="arc" />
        <path
           d="m 188.08833,793.62522 c 0,0 79.94193,-0.10631 80.62741,0 l -17.2465,171.00662 -44.84092,0 z"
           id="path4310"
           inkscape:connector-curvature="0"
           sodipodi:nodetypes="ccccc"
           style="fill:#ffffff;fill-opacity:1;stroke:none" />
        <path
           sodipodi:type="arc"
           style="fill:#ff8b00;fill-opacity:1;stroke:none"
           id="path4312"
           sodipodi:cx="234.68008"
           sodipodi:cy="629.76343"
           sodipodi:rx="64.036453"
           sodipodi:ry="63.314919"
           d="m 298.71654,629.76343 c 0,34.96786 -28.6701,63.31492 -64.03646,63.31492 -35.36635,0 -64.03645,-28.34706 -64.03645,-63.31492 0,-34.96787 28.6701,-63.31492 64.03645,-63.31492 35.36636,0 64.03646,28.34705 64.03646,63.31492 z"
           transform="matrix(0.33652048,0,0,0.34846032,150.81414,739.97272)" />
      </g>
      <path
         transform="matrix(0.64939656,0,0,0.64939656,139.47691,634.75387)"
         d="m 411.25,493.375 c 0,8.07716 -6.49187,14.625 -14.5,14.625 -8.00813,0 -14.5,-6.54784 -14.5,-14.625 0,-8.07716 6.49187,-14.625 14.5,-14.625 8.00813,0 14.5,6.54784 14.5,14.625 z"
         sodipodi:ry="14.625"
         sodipodi:rx="14.5"
         sodipodi:cy="493.375"
         sodipodi:cx="396.75"
         id="path4314"
         style="fill:#ff8b00;fill-opacity:1;stroke:#ffffff;stroke-width:0.50141937;stroke-miterlimit:4;stroke-opacity:1;stroke-dasharray:none"
         sodipodi:type="arc" />
      <path
         style="fill:#ffffff;fill-opacity:1;stroke:none"
         d="m 394.13094,950.23749 8.23813,5.22348 c -3.48217,2.59657 -5.28721,3.67863 -8.23813,5.52589 z"
         id="path4340"
         inkscape:connector-curvature="0"
         sodipodi:nodetypes="cccc" />
    </g>
    <path
       style="fill:#ffffff;fill-opacity:1;stroke:none"
       d="m 318.54918,199.22993 16.8125,10.6601 c -7.10646,5.2992 -10.7902,7.5074 -16.8125,11.2774 z"
       id="rect3071-1-3-3-1"
       inkscape:connector-curvature="0"
       sodipodi:nodetypes="cccc" />
    <g
       transform="translate(-156.70561,-525.69192)"
       style="font-size:40px;font-style:normal;font-weight:normal;line-height:125%;letter-spacing:0px;word-spacing:0px;fill:#ffffff;fill-opacity:1;stroke:none;font-family:Sans"
       id="text4366">
      <path
         inkscape:connector-curvature="0"
         d="m 451.74536,793.75201 0,-12.88476 1.70508,0 0,11.36426 6.3457,0 0,1.5205 z"
         style="font-size:18px;fill:#ffffff"
         id="path3238" />
      <path
         inkscape:connector-curvature="0"
         d="m 468.02271,790.74615 1.63476,0.20215 c -0.25782,0.95508 -0.73536,1.69629 -1.43262,2.22364 -0.69727,0.52734 -1.58789,0.79101 -2.67187,0.79101 -1.36524,0 -2.44776,-0.42041 -3.24756,-1.26123 -0.79981,-0.84082 -1.19971,-2.02002 -1.19971,-3.5376 0,-1.5703 0.4043,-2.78905 1.21289,-3.65625 0.80859,-0.86717 1.85742,-1.30077 3.14649,-1.30078 1.24804,10e-6 2.26757,0.42482 3.05859,1.27442 0.79101,0.84961 1.18652,2.04492 1.18653,3.58593 -1e-5,0.0938 -0.003,0.23438 -0.009,0.42188 l -6.96094,0 c 0.0586,1.02539 0.34863,1.81055 0.87012,2.35547 0.52148,0.54492 1.17187,0.81738 1.95117,0.81738 0.58007,0 1.07519,-0.15234 1.48535,-0.45703 0.41015,-0.30469 0.73534,-0.79101 0.97559,-1.45899 z m -5.19434,-2.55761 5.21191,0 c -0.0703,-0.78515 -0.26954,-1.37402 -0.59765,-1.7666 -0.50392,-0.60937 -1.15724,-0.91406 -1.95996,-0.91407 -0.72657,10e-6 -1.33741,0.24318 -1.83252,0.7295 -0.49512,0.48633 -0.76905,1.13672 -0.82178,1.95117 z"
         style="font-size:18px;fill:#ffffff"
         id="path3240" />
      <path
         inkscape:connector-curvature="0"
         d="m 478.04224,790.74615 1.63476,0.20215 c -0.25782,0.95508 -0.73536,1.69629 -1.43262,2.22364 -0.69727,0.52734 -1.58789,0.79101 -2.67187,0.79101 -1.36524,0 -2.44776,-0.42041 -3.24756,-1.26123 -0.7998,-0.84082 -1.19971,-2.02002 -1.19971,-3.5376 0,-1.5703 0.4043,-2.78905 1.21289,-3.65625 0.8086,-0.86717 1.85742,-1.30077 3.14649,-1.30078 1.24804,10e-6 2.26757,0.42482 3.05859,1.27442 0.79101,0.84961 1.18652,2.04492 1.18653,3.58593 -10e-6,0.0938 -0.003,0.23438 -0.009,0.42188 l -6.96094,0 c 0.0586,1.02539 0.34863,1.81055 0.87012,2.35547 0.52148,0.54492 1.17187,0.81738 1.95117,0.81738 0.58007,0 1.07519,-0.15234 1.48535,-0.45703 0.41015,-0.30469 0.73534,-0.79101 0.97559,-1.45899 z m -5.19434,-2.55761 5.21191,0 c -0.0703,-0.78515 -0.26953,-1.37402 -0.59765,-1.7666 -0.50391,-0.60937 -1.15723,-0.91406 -1.95996,-0.91407 -0.72657,10e-6 -1.33741,0.24318 -1.83252,0.7295 -0.49512,0.48633 -0.76905,1.13672 -0.82178,1.95117 z"
         style="font-size:18px;fill:#ffffff"
         id="path3242" />
      <path
         inkscape:connector-curvature="0"
         d="m 490.14478,793.75201 0,-11.36425 -4.24512,0 0,-1.52051 10.21289,0 0,1.52051 -4.2627,0 0,11.36425 z"
         style="font-size:18px;fill:#ffffff"
         id="path3244" />
      <path
         inkscape:connector-curvature="0"
         d="m 503.7854,793.75201 0,-1.37109 c -0.72657,1.05469 -1.71387,1.58203 -2.96191,1.58203 -0.55079,0 -1.06495,-0.10547 -1.54248,-0.3164 -0.47755,-0.21094 -0.83204,-0.47608 -1.06348,-0.79541 -0.23145,-0.31934 -0.39405,-0.71045 -0.48779,-1.17334 -0.0645,-0.31055 -0.0967,-0.80274 -0.0967,-1.47657 l 0,-5.7832 1.58203,0 0,5.17676 c 0,0.82617 0.0322,1.38281 0.0967,1.66992 0.0996,0.41602 0.31054,0.74268 0.63281,0.97998 0.32226,0.23731 0.7207,0.35596 1.19531,0.35596 0.47461,0 0.91992,-0.12158 1.33594,-0.36475 0.41601,-0.24316 0.71044,-0.57422 0.8833,-0.99316 0.17285,-0.41895 0.25927,-1.02686 0.25928,-1.82373 l 0,-5.00098 1.58203,0 0,9.33398 z"
         style="font-size:18px;fill:#ffffff"
         id="path3246" />
      <path
         inkscape:connector-curvature="0"
         d="m 507.05493,790.96588 1.56445,-0.24609 c 0.0879,0.62695 0.33252,1.10742 0.73389,1.4414 0.40137,0.33399 0.9624,0.50098 1.68311,0.50098 0.72655,0 1.26562,-0.14795 1.61718,-0.44385 0.35156,-0.29589 0.52734,-0.64306 0.52735,-1.0415 -1e-5,-0.35742 -0.15528,-0.63867 -0.46582,-0.84375 -0.2168,-0.14062 -0.75587,-0.31933 -1.61719,-0.53613 -1.16016,-0.29297 -1.96436,-0.54639 -2.4126,-0.76026 -0.44824,-0.21386 -0.78808,-0.50976 -1.01953,-0.88769 -0.23144,-0.37793 -0.34717,-0.79541 -0.34717,-1.25244 0,-0.41601 0.0952,-0.80127 0.28565,-1.15577 0.19043,-0.35448 0.4497,-0.64891 0.77783,-0.8833 0.24609,-0.18163 0.58154,-0.33544 1.00635,-0.46142 0.4248,-0.12597 0.88037,-0.18896 1.3667,-0.18897 0.73241,10e-6 1.37548,0.10548 1.9292,0.31641 0.5537,0.21095 0.96239,0.49659 1.22607,0.85693 0.26366,0.36036 0.44531,0.84229 0.54492,1.4458 l -1.54687,0.21094 c -0.0703,-0.48046 -0.27393,-0.85546 -0.61084,-1.125 -0.33692,-0.26952 -0.813,-0.40429 -1.42823,-0.4043 -0.72656,10e-6 -1.24512,0.12013 -1.55566,0.36036 -0.31055,0.24024 -0.46582,0.52149 -0.46582,0.84375 0,0.20508 0.0645,0.38965 0.19336,0.55371 0.1289,0.16992 0.33105,0.31055 0.60645,0.42187 0.15819,0.0586 0.62401,0.19337 1.39746,0.4043 1.11913,0.29883 1.89989,0.54346 2.34228,0.73388 0.44238,0.19044 0.78954,0.46729 1.04151,0.83057 0.25194,0.36329 0.37792,0.81446 0.37792,1.35352 0,0.52734 -0.15381,1.02392 -0.46142,1.48974 -0.30763,0.46582 -0.75147,0.82618 -1.33154,1.08106 -0.58009,0.25488 -1.23634,0.38232 -1.96875,0.38232 -1.2129,0 -2.13721,-0.25195 -2.77295,-0.75586 -0.63575,-0.5039 -1.04151,-1.25097 -1.21729,-2.24121 z"
         style="font-size:18px;fill:#ffffff"
         id="path3248" />
      <path
         inkscape:connector-curvature="0"
         d="m 521.8645,793.75201 0,-12.88476 1.74903,0 6.76757,10.11621 0,-10.11621 1.63477,0 0,12.88476 -1.74902,0 -6.76758,-10.125 0,10.125 z"
         style="font-size:18px;fill:#ffffff"
         id="path3250" />
      <path
         inkscape:connector-curvature="0"
         d="m 534.09888,789.08502 c 0,-1.72851 0.48046,-3.00878 1.4414,-3.84082 0.80273,-0.6914 1.78125,-1.0371 2.93555,-1.03711 1.2832,10e-6 2.33202,0.42042 3.14648,1.26123 0.81445,0.84083 1.22167,2.00245 1.22168,3.48487 -10e-6,1.20117 -0.18018,2.14599 -0.54052,2.83447 -0.36036,0.68848 -0.88478,1.22314 -1.57325,1.604 -0.68848,0.38086 -1.43994,0.57129 -2.25439,0.57129 -1.30664,0 -2.3628,-0.41894 -3.16846,-1.25683 -0.80566,-0.83789 -1.20849,-2.04492 -1.20849,-3.6211 z m 1.62597,0 c 0,1.19532 0.26074,2.09034 0.78223,2.68506 0.52148,0.59473 1.17773,0.89209 1.96875,0.89209 0.78515,0 1.43847,-0.29883 1.95996,-0.89648 0.52148,-0.59766 0.78222,-1.50879 0.78223,-2.7334 -10e-6,-1.15429 -0.26222,-2.0288 -0.78662,-2.62354 -0.52442,-0.59472 -1.17628,-0.89208 -1.95557,-0.89209 -0.79102,10e-6 -1.44727,0.29591 -1.96875,0.8877 -0.52149,0.5918 -0.78223,1.48536 -0.78223,2.68066 z"
         style="font-size:18px;fill:#ffffff"
         id="path3252" />
      <path
         inkscape:connector-curvature="0"
         d="m 548.16138,792.33698 0.22851,1.39746 c -0.44531,0.0937 -0.84375,0.14062 -1.19531,0.14062 -0.57422,0 -1.01953,-0.0908 -1.33594,-0.27246 -0.31641,-0.18164 -0.53906,-0.42041 -0.66797,-0.71631 -0.1289,-0.2959 -0.19336,-0.91845 -0.19336,-1.86767 l 0,-5.37012 -1.16015,0 0,-1.23047 1.16015,0 0,-2.31152 1.57325,-0.94922 0,3.26074 1.59082,0 0,1.23047 -1.59082,0 0,5.45801 c -10e-6,0.45117 0.0278,0.74121 0.0835,0.87011 0.0557,0.12891 0.14648,0.23145 0.27246,0.30762 0.12598,0.0762 0.30615,0.11426 0.54053,0.11426 0.17578,0 0.40722,-0.0205 0.69434,-0.0615 z"
         style="font-size:18px;fill:#ffffff"
         id="path3254" />
      <path
         inkscape:connector-curvature="0"
         d="m 549.70825,782.68658 0,-1.81933 1.58203,0 0,1.81933 z m 0,11.06543 0,-9.33398 1.58203,0 0,9.33398 z"
         style="font-size:18px;fill:#ffffff"
         id="path3256" />
      <path
         inkscape:connector-curvature="0"
         d="m 559.7981,790.33307 1.55566,0.20215 c -0.16993,1.07227 -0.60499,1.91162 -1.30518,2.51806 -0.7002,0.60645 -1.56006,0.90967 -2.57959,0.90967 -1.27734,0 -2.3042,-0.41748 -3.08056,-1.25244 -0.77637,-0.83496 -1.16455,-2.03173 -1.16455,-3.59033 0,-1.00781 0.16699,-1.88964 0.50097,-2.64551 0.33399,-0.75585 0.84229,-1.32274 1.52491,-1.70068 0.68261,-0.37792 1.42528,-0.56689 2.22802,-0.5669 1.01367,10e-6 1.84277,0.25636 2.48731,0.76905 0.64452,0.5127 1.05761,1.24073 1.23926,2.18408 l -1.53809,0.2373 c -0.14649,-0.62694 -0.40577,-1.09862 -0.77783,-1.41504 -0.37208,-0.3164 -0.82179,-0.4746 -1.34912,-0.47461 -0.79688,10e-6 -1.44434,0.28566 -1.94239,0.85694 -0.49805,0.57129 -0.74707,1.4751 -0.74707,2.71142 0,1.25391 0.24024,2.16504 0.72071,2.7334 0.48046,0.56836 1.10741,0.85254 1.88086,0.85254 0.62108,0 1.13964,-0.19043 1.55566,-0.57129 0.41601,-0.38086 0.67968,-0.96679 0.79102,-1.75781 z"
         style="font-size:18px;fill:#ffffff"
         id="path3258" />
      <path
         inkscape:connector-curvature="0"
         d="m 562.71606,782.68658 0,-1.81933 1.58204,0 0,1.81933 z m 0,11.06543 0,-9.33398 1.58204,0 0,9.33398 z"
         style="font-size:18px;fill:#ffffff"
         id="path3260" />
      <path
         inkscape:connector-curvature="0"
         d="m 572.80591,792.60065 c -0.58595,0.49804 -1.14991,0.84961 -1.6919,1.05468 -0.54199,0.20508 -1.12354,0.30762 -1.74463,0.30762 -1.02539,0 -1.81347,-0.25049 -2.36425,-0.75146 -0.55079,-0.50098 -0.82618,-1.14111 -0.82617,-1.92041 -10e-6,-0.45703 0.104,-0.87451 0.31201,-1.25244 0.208,-0.37793 0.48046,-0.68115 0.81738,-0.90967 0.33691,-0.22851 0.71631,-0.40136 1.13818,-0.51856 0.31055,-0.082 0.7793,-0.16112 1.40625,-0.2373 1.27734,-0.15234 2.21777,-0.33398 2.82129,-0.54492 0.006,-0.21679 0.009,-0.35449 0.009,-0.41309 -1e-5,-0.64452 -0.14942,-1.09863 -0.44824,-1.3623 -0.4043,-0.35742 -1.00489,-0.53613 -1.80176,-0.53614 -0.74414,10e-6 -1.29346,0.13038 -1.64795,0.39112 -0.35449,0.26075 -0.6167,0.72217 -0.78662,1.38427 l -1.54687,-0.21093 c 0.14062,-0.66211 0.37207,-1.19677 0.69433,-1.60401 0.32227,-0.40722 0.78809,-0.72069 1.39746,-0.94043 0.60937,-0.21971 1.31543,-0.32958 2.11817,-0.32959 0.79687,10e-6 1.44433,0.0938 1.94238,0.28125 0.49804,0.18751 0.86425,0.42335 1.09863,0.70752 0.23437,0.28419 0.39843,0.64308 0.49219,1.07666 0.0527,0.26954 0.0791,0.75587 0.0791,1.45899 l 0,2.10937 c -1e-5,1.47071 0.0337,2.40088 0.10108,2.79053 0.0674,0.38965 0.20067,0.76318 0.3999,1.1206 l -1.65235,0 c -0.16407,-0.32812 -0.26953,-0.71191 -0.3164,-1.15136 z m -0.13184,-3.53321 c -0.57422,0.23438 -1.43555,0.4336 -2.58398,0.59766 -0.6504,0.0937 -1.11036,0.19922 -1.37988,0.31641 -0.26954,0.11719 -0.47755,0.28857 -0.62403,0.51416 -0.14649,0.22559 -0.21973,0.47607 -0.21972,0.75146 -10e-6,0.42188 0.15966,0.77344 0.479,1.05469 0.31933,0.28125 0.78662,0.42187 1.40185,0.42187 0.60937,0 1.15137,-0.1333 1.62598,-0.3999 0.4746,-0.2666 0.82324,-0.63134 1.0459,-1.09424 0.16991,-0.35742 0.25488,-0.88476 0.25488,-1.58203 z"
         style="font-size:18px;fill:#ffffff"
         id="path3262" />
      <path
         inkscape:connector-curvature="0"
         d="m 576.10181,790.96588 1.56445,-0.24609 c 0.0879,0.62695 0.33252,1.10742 0.73389,1.4414 0.40136,0.33399 0.9624,0.50098 1.6831,0.50098 0.72656,0 1.26562,-0.14795 1.61719,-0.44385 0.35156,-0.29589 0.52734,-0.64306 0.52734,-1.0415 0,-0.35742 -0.15528,-0.63867 -0.46582,-0.84375 -0.2168,-0.14062 -0.75586,-0.31933 -1.61718,-0.53613 -1.16016,-0.29297 -1.96436,-0.54639 -2.4126,-0.76026 -0.44825,-0.21386 -0.78809,-0.50976 -1.01953,-0.88769 -0.23145,-0.37793 -0.34717,-0.79541 -0.34717,-1.25244 0,-0.41601 0.0952,-0.80127 0.28564,-1.15577 0.19043,-0.35448 0.44971,-0.64891 0.77784,-0.8833 0.24609,-0.18163 0.58154,-0.33544 1.00634,-0.46142 0.4248,-0.12597 0.88037,-0.18896 1.3667,-0.18897 0.73242,10e-6 1.37548,0.10548 1.9292,0.31641 0.55371,0.21095 0.9624,0.49659 1.22608,0.85693 0.26366,0.36036 0.4453,0.84229 0.54492,1.4458 l -1.54688,0.21094 c -0.0703,-0.48046 -0.27393,-0.85546 -0.61084,-1.125 -0.33692,-0.26952 -0.81299,-0.40429 -1.42822,-0.4043 -0.72657,10e-6 -1.24512,0.12013 -1.55566,0.36036 -0.31055,0.24024 -0.46583,0.52149 -0.46582,0.84375 -10e-6,0.20508 0.0645,0.38965 0.19335,0.55371 0.12891,0.16992 0.33106,0.31055 0.60645,0.42187 0.1582,0.0586 0.62402,0.19337 1.39746,0.4043 1.11914,0.29883 1.8999,0.54346 2.34229,0.73388 0.44237,0.19044 0.78954,0.46729 1.0415,0.83057 0.25195,0.36329 0.37792,0.81446 0.37793,1.35352 -10e-6,0.52734 -0.15382,1.02392 -0.46143,1.48974 -0.30762,0.46582 -0.75147,0.82618 -1.33154,1.08106 -0.58008,0.25488 -1.23633,0.38232 -1.96875,0.38232 -1.21289,0 -2.13721,-0.25195 -2.77295,-0.75586 -0.63574,-0.5039 -1.0415,-1.25097 -1.21728,-2.24121 z"
         style="font-size:18px;fill:#ffffff"
         id="path3264" />
      <path
         inkscape:connector-curvature="0"
         d="m 591.01685,793.75201 0,-12.88476 8.69238,0 0,1.52051 -6.98731,0 0,3.99023 6.04688,0 0,1.52051 -6.04688,0 0,5.85351 z"
         style="font-size:18px;fill:#ffffff"
         id="path3266" />
      <path
         inkscape:connector-curvature="0"
         d="m 607.82153,792.60065 c -0.58594,0.49804 -1.14991,0.84961 -1.69189,1.05468 -0.542,0.20508 -1.12354,0.30762 -1.74463,0.30762 -1.02539,0 -1.81348,-0.25049 -2.36426,-0.75146 -0.55078,-0.50098 -0.82617,-1.14111 -0.82617,-1.92041 0,-0.45703 0.104,-0.87451 0.31201,-1.25244 0.20801,-0.37793 0.48047,-0.68115 0.81738,-0.90967 0.33692,-0.22851 0.71631,-0.40136 1.13819,-0.51856 0.31054,-0.082 0.77929,-0.16112 1.40625,-0.2373 1.27734,-0.15234 2.21777,-0.33398 2.82129,-0.54492 0.006,-0.21679 0.009,-0.35449 0.009,-0.41309 -10e-6,-0.64452 -0.14942,-1.09863 -0.44825,-1.3623 -0.4043,-0.35742 -1.00488,-0.53613 -1.80175,-0.53614 -0.74415,10e-6 -1.29346,0.13038 -1.64795,0.39112 -0.3545,0.26075 -0.6167,0.72217 -0.78662,1.38427 l -1.54688,-0.21093 c 0.14062,-0.66211 0.37207,-1.19677 0.69434,-1.60401 0.32226,-0.40722 0.78808,-0.72069 1.39746,-0.94043 0.60937,-0.21971 1.31542,-0.32958 2.11816,-0.32959 0.79687,10e-6 1.44433,0.0938 1.94238,0.28125 0.49804,0.18751 0.86425,0.42335 1.09864,0.70752 0.23436,0.28419 0.39843,0.64308 0.49219,1.07666 0.0527,0.26954 0.0791,0.75587 0.0791,1.45899 l 0,2.10937 c -1e-5,1.47071 0.0337,2.40088 0.10107,2.79053 0.0674,0.38965 0.20068,0.76318 0.3999,1.1206 l -1.65234,0 c -0.16407,-0.32812 -0.26954,-0.71191 -0.31641,-1.15136 z m -0.13183,-3.53321 c -0.57423,0.23438 -1.43556,0.4336 -2.58399,0.59766 -0.65039,0.0937 -1.11035,0.19922 -1.37988,0.31641 -0.26953,0.11719 -0.47754,0.28857 -0.62402,0.51416 -0.14649,0.22559 -0.21973,0.47607 -0.21973,0.75146 0,0.42188 0.15967,0.77344 0.479,1.05469 0.31934,0.28125 0.78662,0.42187 1.40186,0.42187 0.60937,0 1.15136,-0.1333 1.62598,-0.3999 0.4746,-0.2666 0.82323,-0.63134 1.04589,-1.09424 0.16992,-0.35742 0.25488,-0.88476 0.25489,-1.58203 z"
         style="font-size:18px;fill:#ffffff"
         id="path3268" />
      <path
         inkscape:connector-curvature="0"
         d="m 614.34302,793.75201 -3.55078,-9.33398 1.66992,0 2.0039,5.58984 c 0.2168,0.60352 0.41602,1.23047 0.59766,1.88086 0.14062,-0.49218 0.33691,-1.08398 0.58887,-1.77539 l 2.07422,-5.69531 1.62597,0 -3.5332,9.33398 z"
         style="font-size:18px;fill:#ffffff"
         id="path3270" />
      <path
         inkscape:connector-curvature="0"
         d="m 620.16138,789.08502 c 0,-1.72851 0.48046,-3.00878 1.4414,-3.84082 0.80273,-0.6914 1.78125,-1.0371 2.93555,-1.03711 1.2832,10e-6 2.33202,0.42042 3.14648,1.26123 0.81445,0.84083 1.22167,2.00245 1.22168,3.48487 -10e-6,1.20117 -0.18018,2.14599 -0.54052,2.83447 -0.36036,0.68848 -0.88478,1.22314 -1.57325,1.604 -0.68848,0.38086 -1.43994,0.57129 -2.25439,0.57129 -1.30664,0 -2.3628,-0.41894 -3.16846,-1.25683 -0.80566,-0.83789 -1.20849,-2.04492 -1.20849,-3.6211 z m 1.62597,0 c 0,1.19532 0.26074,2.09034 0.78223,2.68506 0.52148,0.59473 1.17773,0.89209 1.96875,0.89209 0.78515,0 1.43847,-0.29883 1.95996,-0.89648 0.52148,-0.59766 0.78222,-1.50879 0.78223,-2.7334 -10e-6,-1.15429 -0.26222,-2.0288 -0.78662,-2.62354 -0.52442,-0.59472 -1.17628,-0.89208 -1.95557,-0.89209 -0.79102,10e-6 -1.44727,0.29591 -1.96875,0.8877 -0.52149,0.5918 -0.78223,1.48536 -0.78223,2.68066 z"
         style="font-size:18px;fill:#ffffff"
         id="path3272" />
      <path
         inkscape:connector-curvature="0"
         d="m 630.7522,793.75201 0,-9.33398 1.42383,0 0,1.41504 c 0.36327,-0.6621 0.69872,-1.09862 1.00634,-1.30957 0.30762,-0.21093 0.64599,-0.3164 1.01514,-0.31641 0.5332,10e-6 1.07519,0.16993 1.62598,0.50977 l -0.54493,1.46777 c -0.38672,-0.22851 -0.77344,-0.34276 -1.16015,-0.34277 -0.34571,10e-6 -0.65626,0.10401 -0.93164,0.31201 -0.2754,0.20801 -0.47169,0.49659 -0.58887,0.86572 -0.17578,0.56251 -0.26367,1.17774 -0.26367,1.84571 l 0,4.88671 z"
         style="font-size:18px;fill:#ffffff"
         id="path3274" />
      <path
         inkscape:connector-curvature="0"
         d="m 636.79028,782.68658 0,-1.81933 1.58203,0 0,1.81933 z m 0,11.06543 0,-9.33398 1.58203,0 0,9.33398 z"
         style="font-size:18px;fill:#ffffff"
         id="path3276" />
      <path
         inkscape:connector-curvature="0"
         d="m 644.24341,792.33698 0.22851,1.39746 c -0.44531,0.0937 -0.84375,0.14062 -1.19531,0.14062 -0.57422,0 -1.01953,-0.0908 -1.33594,-0.27246 -0.3164,-0.18164 -0.53906,-0.42041 -0.66796,-0.71631 -0.12891,-0.2959 -0.19337,-0.91845 -0.19336,-1.86767 l 0,-5.37012 -1.16016,0 0,-1.23047 1.16016,0 0,-2.31152 1.57324,-0.94922 0,3.26074 1.59082,0 0,1.23047 -1.59082,0 0,5.45801 c -1e-5,0.45117 0.0278,0.74121 0.0835,0.87011 0.0557,0.12891 0.14649,0.23145 0.27246,0.30762 0.12598,0.0762 0.30615,0.11426 0.54053,0.11426 0.17578,0 0.40722,-0.0205 0.69434,-0.0615 z"
         style="font-size:18px;fill:#ffffff"
         id="path3278" />
      <path
         inkscape:connector-curvature="0"
         d="m 651.87231,792.60065 c -0.58594,0.49804 -1.1499,0.84961 -1.69189,1.05468 -0.542,0.20508 -1.12354,0.30762 -1.74463,0.30762 -1.02539,0 -1.81348,-0.25049 -2.36426,-0.75146 -0.55078,-0.50098 -0.82617,-1.14111 -0.82617,-1.92041 0,-0.45703 0.104,-0.87451 0.31201,-1.25244 0.20801,-0.37793 0.48047,-0.68115 0.81739,-0.90967 0.33691,-0.22851 0.7163,-0.40136 1.13818,-0.51856 0.31054,-0.082 0.77929,-0.16112 1.40625,-0.2373 1.27734,-0.15234 2.21777,-0.33398 2.82129,-0.54492 0.006,-0.21679 0.009,-0.35449 0.009,-0.41309 -10e-6,-0.64452 -0.14942,-1.09863 -0.44824,-1.3623 -0.40431,-0.35742 -1.00489,-0.53613 -1.80176,-0.53614 -0.74415,10e-6 -1.29346,0.13038 -1.64795,0.39112 -0.3545,0.26075 -0.6167,0.72217 -0.78662,1.38427 l -1.54688,-0.21093 c 0.14063,-0.66211 0.37207,-1.19677 0.69434,-1.60401 0.32226,-0.40722 0.78808,-0.72069 1.39746,-0.94043 0.60937,-0.21971 1.31542,-0.32958 2.11816,-0.32959 0.79687,10e-6 1.44433,0.0938 1.94239,0.28125 0.49804,0.18751 0.86425,0.42335 1.09863,0.70752 0.23437,0.28419 0.39843,0.64308 0.49219,1.07666 0.0527,0.26954 0.0791,0.75587 0.0791,1.45899 l 0,2.10937 c -10e-6,1.47071 0.0337,2.40088 0.10107,2.79053 0.0674,0.38965 0.20068,0.76318 0.3999,1.1206 l -1.65234,0 c -0.16407,-0.32812 -0.26954,-0.71191 -0.31641,-1.15136 z m -0.13183,-3.53321 c -0.57423,0.23438 -1.43555,0.4336 -2.58399,0.59766 -0.65039,0.0937 -1.11035,0.19922 -1.37988,0.31641 -0.26953,0.11719 -0.47754,0.28857 -0.62402,0.51416 -0.14649,0.22559 -0.21973,0.47607 -0.21973,0.75146 0,0.42188 0.15967,0.77344 0.47901,1.05469 0.31933,0.28125 0.78661,0.42187 1.40185,0.42187 0.60937,0 1.15136,-0.1333 1.62598,-0.3999 0.4746,-0.2666 0.82323,-0.63134 1.0459,-1.09424 0.16991,-0.35742 0.25487,-0.88476 0.25488,-1.58203 z"
         style="font-size:18px;fill:#ffffff"
         id="path3280" />
      <path
         inkscape:connector-curvature="0"
         d="m 655.16821,790.96588 1.56446,-0.24609 c 0.0879,0.62695 0.33251,1.10742 0.73388,1.4414 0.40137,0.33399 0.9624,0.50098 1.68311,0.50098 0.72656,0 1.26562,-0.14795 1.61719,-0.44385 0.35155,-0.29589 0.52733,-0.64306 0.52734,-1.0415 -10e-6,-0.35742 -0.15528,-0.63867 -0.46582,-0.84375 -0.2168,-0.14062 -0.75587,-0.31933 -1.61719,-0.53613 -1.16016,-0.29297 -1.96436,-0.54639 -2.4126,-0.76026 -0.44824,-0.21386 -0.78808,-0.50976 -1.01953,-0.88769 -0.23144,-0.37793 -0.34717,-0.79541 -0.34717,-1.25244 0,-0.41601 0.0952,-0.80127 0.28565,-1.15577 0.19043,-0.35448 0.4497,-0.64891 0.77783,-0.8833 0.24609,-0.18163 0.58154,-0.33544 1.00635,-0.46142 0.4248,-0.12597 0.88037,-0.18896 1.3667,-0.18897 0.73242,10e-6 1.37548,0.10548 1.9292,0.31641 0.5537,0.21095 0.96239,0.49659 1.22607,0.85693 0.26367,0.36036 0.44531,0.84229 0.54492,1.4458 l -1.54687,0.21094 c -0.0703,-0.48046 -0.27393,-0.85546 -0.61084,-1.125 -0.33692,-0.26952 -0.81299,-0.40429 -1.42822,-0.4043 -0.72657,10e-6 -1.24512,0.12013 -1.55567,0.36036 -0.31055,0.24024 -0.46582,0.52149 -0.46582,0.84375 0,0.20508 0.0644,0.38965 0.19336,0.55371 0.1289,0.16992 0.33105,0.31055 0.60645,0.42187 0.1582,0.0586 0.62402,0.19337 1.39746,0.4043 1.11913,0.29883 1.89989,0.54346 2.34228,0.73388 0.44238,0.19044 0.78955,0.46729 1.04151,0.83057 0.25194,0.36329 0.37792,0.81446 0.37793,1.35352 -10e-6,0.52734 -0.15382,1.02392 -0.46143,1.48974 -0.30762,0.46582 -0.75147,0.82618 -1.33154,1.08106 -0.58009,0.25488 -1.23634,0.38232 -1.96875,0.38232 -1.2129,0 -2.13721,-0.25195 -2.77295,-0.75586 -0.63575,-0.5039 -1.04151,-1.25097 -1.21729,-2.24121 z"
         style="font-size:18px;fill:#ffffff"
         id="path3282" />
      <path
         inkscape:connector-curvature="0"
         d="m 675.84888,793.75201 0,-1.17773 c -0.59181,0.92578 -1.46192,1.38867 -2.61035,1.38867 -0.74415,0 -1.42823,-0.20508 -2.05225,-0.61523 -0.62403,-0.41016 -1.10742,-0.98291 -1.4502,-1.71826 -0.34277,-0.73535 -0.51416,-1.58057 -0.51416,-2.53565 0,-0.93163 0.15528,-1.77685 0.46582,-2.53564 0.31055,-0.75878 0.77637,-1.34033 1.39747,-1.74463 0.62109,-0.40429 1.31542,-0.60644 2.083,-0.60645 0.5625,10e-6 1.06347,0.11866 1.50293,0.35596 0.43945,0.23731 0.79687,0.54639 1.07227,0.92725 l 0,-4.62305 1.57324,0 0,12.88476 z m -5.00098,-4.6582 c 0,1.19532 0.25195,2.08887 0.75586,2.68067 0.5039,0.59179 1.09863,0.88769 1.78418,0.88769 0.6914,0 1.2788,-0.28271 1.76221,-0.84814 0.48339,-0.56543 0.72509,-1.42822 0.72509,-2.58838 0,-1.27734 -0.2461,-2.21484 -0.73828,-2.8125 -0.49219,-0.59765 -1.09864,-0.89648 -1.81933,-0.89649 -0.70313,10e-6 -1.29053,0.28712 -1.76221,0.86133 -0.47168,0.57423 -0.70752,1.4795 -0.70752,2.71582 z"
         style="font-size:18px;fill:#ffffff"
         id="path3284" />
      <path
         inkscape:connector-curvature="0"
         d="m 686.20239,790.74615 1.63477,0.20215 c -0.25782,0.95508 -0.73536,1.69629 -1.43262,2.22364 -0.69727,0.52734 -1.5879,0.79101 -2.67187,0.79101 -1.36524,0 -2.44776,-0.42041 -3.24756,-1.26123 -0.79981,-0.84082 -1.19971,-2.02002 -1.19971,-3.5376 0,-1.5703 0.4043,-2.78905 1.21289,-3.65625 0.80859,-0.86717 1.85742,-1.30077 3.14649,-1.30078 1.24804,10e-6 2.26757,0.42482 3.05859,1.27442 0.79101,0.84961 1.18651,2.04492 1.18652,3.58593 -1e-5,0.0938 -0.003,0.23438 -0.009,0.42188 l -6.96093,0 c 0.0586,1.02539 0.34863,1.81055 0.87011,2.35547 0.52148,0.54492 1.17187,0.81738 1.95118,0.81738 0.58007,0 1.07518,-0.15234 1.48535,-0.45703 0.41015,-0.30469 0.73534,-0.79101 0.97558,-1.45899 z m -5.19433,-2.55761 5.21191,0 c -0.0703,-0.78515 -0.26954,-1.37402 -0.59766,-1.7666 -0.50391,-0.60937 -1.15723,-0.91406 -1.95996,-0.91407 -0.72656,10e-6 -1.3374,0.24318 -1.83252,0.7295 -0.49512,0.48633 -0.76904,1.13672 -0.82177,1.95117 z"
         style="font-size:18px;fill:#ffffff"
         id="path3286" />
      <path
         inkscape:connector-curvature="0"
         d="m 694.81567,782.70416 0,-1.83691 1.58204,0 0,1.83691 z m -2.0039,14.66895 0.29883,-1.34473 c 0.3164,0.082 0.56543,0.12305 0.74707,0.12305 0.32226,0 0.5625,-0.10694 0.7207,-0.3208 0.1582,-0.21387 0.2373,-0.74854 0.2373,-1.60401 l 0,-9.80859 1.58204,0 0,9.84375 c -10e-6,1.14844 -0.14942,1.94824 -0.44825,2.39941 -0.38086,0.58594 -1.01367,0.87891 -1.89843,0.87891 -0.42774,0 -0.84082,-0.0557 -1.23926,-0.16699 z"
         style="font-size:18px;fill:#ffffff"
         id="path3288" />
      <path
         inkscape:connector-curvature="0"
         d="m 704.94946,793.75201 0,-1.37109 c -0.72657,1.05469 -1.71387,1.58203 -2.96191,1.58203 -0.55079,0 -1.06495,-0.10547 -1.54248,-0.3164 -0.47754,-0.21094 -0.83203,-0.47608 -1.06348,-0.79541 -0.23145,-0.31934 -0.39404,-0.71045 -0.48779,-1.17334 -0.0645,-0.31055 -0.0967,-0.80274 -0.0967,-1.47657 l 0,-5.7832 1.58203,0 0,5.17676 c 0,0.82617 0.0322,1.38281 0.0967,1.66992 0.0996,0.41602 0.31054,0.74268 0.63281,0.97998 0.32226,0.23731 0.7207,0.35596 1.19532,0.35596 0.4746,0 0.91991,-0.12158 1.33593,-0.36475 0.41601,-0.24316 0.71045,-0.57422 0.8833,-0.99316 0.17285,-0.41895 0.25927,-1.02686 0.25928,-1.82373 l 0,-5.00098 1.58203,0 0,9.33398 z"
         style="font-size:18px;fill:#ffffff"
         id="path3290" />
      <path
         inkscape:connector-curvature="0"
         d="m 715.24146,790.74615 1.63476,0.20215 c -0.25782,0.95508 -0.73536,1.69629 -1.43262,2.22364 -0.69727,0.52734 -1.58789,0.79101 -2.67187,0.79101 -1.36524,0 -2.44776,-0.42041 -3.24756,-1.26123 -0.79981,-0.84082 -1.19971,-2.02002 -1.19971,-3.5376 0,-1.5703 0.4043,-2.78905 1.21289,-3.65625 0.80859,-0.86717 1.85742,-1.30077 3.14649,-1.30078 1.24804,10e-6 2.26757,0.42482 3.05859,1.27442 0.79101,0.84961 1.18652,2.04492 1.18653,3.58593 -10e-6,0.0938 -0.003,0.23438 -0.009,0.42188 l -6.96094,0 c 0.0586,1.02539 0.34863,1.81055 0.87012,2.35547 0.52148,0.54492 1.17187,0.81738 1.95117,0.81738 0.58007,0 1.07519,-0.15234 1.48535,-0.45703 0.41015,-0.30469 0.73534,-0.79101 0.97559,-1.45899 z m -5.19434,-2.55761 5.21191,0 c -0.0703,-0.78515 -0.26954,-1.37402 -0.59765,-1.7666 -0.50392,-0.60937 -1.15724,-0.91406 -1.95996,-0.91407 -0.72657,10e-6 -1.33741,0.24318 -1.83252,0.7295 -0.49512,0.48633 -0.76905,1.13672 -0.82178,1.95117 z"
         style="font-size:18px;fill:#ffffff"
         id="path3292" />
      <path
         inkscape:connector-curvature="0"
         d="m 718.5813,794.52545 1.53808,0.22852 c 0.0645,0.47461 0.24317,0.82031 0.53614,1.03711 0.39257,0.29296 0.9287,0.43945 1.6084,0.43945 0.73241,0 1.29784,-0.14649 1.69629,-0.43945 0.39843,-0.29297 0.66796,-0.70313 0.80859,-1.23047 0.082,-0.32227 0.12011,-0.99903 0.11426,-2.03028 -0.69142,0.81446 -1.55274,1.22168 -2.58399,1.22168 -1.2832,0 -2.27637,-0.46289 -2.97949,-1.38867 -0.70313,-0.92578 -1.05469,-2.03613 -1.05469,-3.33105 0,-0.89062 0.16113,-1.7124 0.4834,-2.46533 0.32227,-0.75293 0.78955,-1.33447 1.40186,-1.74463 0.6123,-0.41015 1.33154,-0.61523 2.15771,-0.61524 1.10156,10e-6 2.00976,0.44532 2.72461,1.33594 l 0,-1.125 1.45899,0 0,8.06836 c -10e-6,1.45312 -0.14796,2.48291 -0.44385,3.08935 -0.29591,0.60645 -0.76466,1.08545 -1.40625,1.43702 -0.64161,0.35156 -1.43116,0.52734 -2.36865,0.52734 -1.11329,0 -2.0127,-0.25049 -2.69825,-0.75146 -0.68555,-0.50098 -1.0166,-1.25538 -0.99316,-2.26319 z m 1.30957,-5.60742 c 0,1.22461 0.24316,2.11817 0.72949,2.68066 0.48633,0.56251 1.0957,0.84376 1.82813,0.84375 0.72655,10e-6 1.33593,-0.27978 1.82812,-0.83935 0.49218,-0.55957 0.73828,-1.43701 0.73828,-2.63233 0,-1.14257 -0.25342,-2.0039 -0.76025,-2.58398 -0.50684,-0.58007 -1.11768,-0.87011 -1.83252,-0.87012 -0.70313,10e-6 -1.30079,0.28566 -1.79297,0.85694 -0.49219,0.57129 -0.73828,1.41944 -0.73828,2.54443 z"
         style="font-size:18px;fill:#ffffff"
         id="path3294" />
      <path
         inkscape:connector-curvature="0"
         d="m 728.302,789.08502 c 0,-1.72851 0.48047,-3.00878 1.44141,-3.84082 0.80273,-0.6914 1.78124,-1.0371 2.93555,-1.03711 1.28319,10e-6 2.33202,0.42042 3.14648,1.26123 0.81444,0.84083 1.22167,2.00245 1.22168,3.48487 -10e-6,1.20117 -0.18019,2.14599 -0.54053,2.83447 -0.36036,0.68848 -0.88477,1.22314 -1.57324,1.604 -0.68848,0.38086 -1.43995,0.57129 -2.25439,0.57129 -1.30665,0 -2.3628,-0.41894 -3.16846,-1.25683 -0.80567,-0.83789 -1.2085,-2.04492 -1.2085,-3.6211 z m 1.62598,0 c 0,1.19532 0.26074,2.09034 0.78223,2.68506 0.52148,0.59473 1.17773,0.89209 1.96875,0.89209 0.78515,0 1.43847,-0.29883 1.95996,-0.89648 0.52147,-0.59766 0.78221,-1.50879 0.78222,-2.7334 -1e-5,-1.15429 -0.26221,-2.0288 -0.78662,-2.62354 -0.52442,-0.59472 -1.17627,-0.89208 -1.95556,-0.89209 -0.79102,10e-6 -1.44727,0.29591 -1.96875,0.8877 -0.52149,0.5918 -0.78223,1.48536 -0.78223,2.68066 z"
         style="font-size:18px;fill:#ffffff"
         id="path3296" />
      <path
         inkscape:connector-curvature="0"
         d="m 738.27759,790.96588 1.56445,-0.24609 c 0.0879,0.62695 0.33252,1.10742 0.73389,1.4414 0.40136,0.33399 0.9624,0.50098 1.6831,0.50098 0.72656,0 1.26562,-0.14795 1.61719,-0.44385 0.35156,-0.29589 0.52734,-0.64306 0.52734,-1.0415 0,-0.35742 -0.15528,-0.63867 -0.46582,-0.84375 -0.2168,-0.14062 -0.75586,-0.31933 -1.61718,-0.53613 -1.16016,-0.29297 -1.96436,-0.54639 -2.4126,-0.76026 -0.44824,-0.21386 -0.78809,-0.50976 -1.01953,-0.88769 -0.23145,-0.37793 -0.34717,-0.79541 -0.34717,-1.25244 0,-0.41601 0.0952,-0.80127 0.28564,-1.15577 0.19043,-0.35448 0.44971,-0.64891 0.77784,-0.8833 0.24609,-0.18163 0.58154,-0.33544 1.00634,-0.46142 0.42481,-0.12597 0.88037,-0.18896 1.3667,-0.18897 0.73242,10e-6 1.37549,0.10548 1.9292,0.31641 0.55371,0.21095 0.9624,0.49659 1.22608,0.85693 0.26366,0.36036 0.4453,0.84229 0.54492,1.4458 l -1.54688,0.21094 c -0.0703,-0.48046 -0.27393,-0.85546 -0.61084,-1.125 -0.33692,-0.26952 -0.81299,-0.40429 -1.42822,-0.4043 -0.72657,10e-6 -1.24512,0.12013 -1.55566,0.36036 -0.31055,0.24024 -0.46583,0.52149 -0.46582,0.84375 -10e-6,0.20508 0.0644,0.38965 0.19336,0.55371 0.1289,0.16992 0.33105,0.31055 0.60644,0.42187 0.1582,0.0586 0.62402,0.19337 1.39746,0.4043 1.11914,0.29883 1.8999,0.54346 2.34229,0.73388 0.44237,0.19044 0.78954,0.46729 1.0415,0.83057 0.25195,0.36329 0.37792,0.81446 0.37793,1.35352 -10e-6,0.52734 -0.15382,1.02392 -0.46142,1.48974 -0.30763,0.46582 -0.75148,0.82618 -1.33155,1.08106 -0.58008,0.25488 -1.23633,0.38232 -1.96875,0.38232 -1.21289,0 -2.13721,-0.25195 -2.77295,-0.75586 -0.63574,-0.5039 -1.0415,-1.25097 -1.21728,-2.24121 z"
         style="font-size:18px;fill:#ffffff"
         id="path3298" />
    </g>
  </g>
</svg>
