<svg version="1.1" id="Layer_1" xmlns="http://www.w3.org/2000/svg" xmlns:xlink="http://www.w3.org/1999/xlink" x="0px" y="0px" width="147.486px" height="148.364px" viewBox="407 205.636 147.486 148.364" enable-background="new 407 205.636 147.486 148.364" xml:space="preserve">
                        <g>
                            <g>
                                <defs>
                                    <rect id="SVGID_1_" x="407" y="205.636" width="147.486" height="148.364"></rect>
                                </defs>
                                <clipPath id="SVGID_2_">
                                    <use xlink:href="#SVGID_1_" overflow="visible"></use>
                                </clipPath>

                                    <path clip-path="url(#SVGID_2_)" fill="none" stroke="#FFFFFF" stroke-width="1.418" stroke-linecap="round" stroke-linejoin="round" stroke-dasharray="0,4.451" d="
                                    M514.175,231.97c-8.864-6.292-19.575-10.15-31.164-10.59"></path>
                            </g>
                            <g>
                                <defs>
                                    <rect id="SVGID_3_" x="407" y="205.636" width="147.486" height="148.364"></rect>
                                </defs>
                                <clipPath id="SVGID_4_">
                                    <use xlink:href="#SVGID_3_" overflow="visible"></use>
                                </clipPath>

                                    <path clip-path="url(#SVGID_4_)" fill="none" stroke="#FFFFFF" stroke-width="1.418" stroke-linecap="round" stroke-linejoin="round" stroke-dasharray="0,4.35" d="
                                    M476.44,221.499c-21.969,1.637-40.473,15.587-48.745,34.955"></path>
                            </g>
                            <g>
                                <defs>
                                    <rect id="SVGID_5_" x="407" y="205.636" width="147.486" height="148.364"></rect>
                                </defs>
                                <clipPath id="SVGID_6_">
                                    <use xlink:href="#SVGID_5_" overflow="visible"></use>
                                </clipPath>

                                    <path clip-path="url(#SVGID_6_)" fill="none" stroke="#FFFFFF" stroke-width="1.418" stroke-linecap="round" stroke-linejoin="round" d="
                                    M426.879,258.469L426.879,258.469 M480.786,221.338L480.786,221.338 M517.702,234.683L517.702,234.683"></path>
                            </g>
                            <g>
                                <defs>
                                    <rect id="SVGID_7_" x="407" y="205.636" width="147.486" height="148.364"></rect>
                                </defs>
                                <clipPath id="SVGID_8_">
                                    <use xlink:href="#SVGID_7_" overflow="visible"></use>
                                </clipPath>

                                    <path clip-path="url(#SVGID_8_)" fill="none" stroke="#FFFFFF" stroke-width="1.418" stroke-linecap="round" stroke-linejoin="round" stroke-dasharray="0,4.29" d="
                                    M441.751,321.617c9.789,9.008,22.669,14.699,36.891,15.222"></path>
                            </g>
                            <g>
                                <defs>
                                    <rect id="SVGID_9_" x="407" y="205.636" width="147.486" height="148.364"></rect>
                                </defs>
                                <clipPath id="SVGID_10_">
                                    <use xlink:href="#SVGID_9_" overflow="visible"></use>
                                </clipPath>

                                    <path clip-path="url(#SVGID_10_)" fill="none" stroke="#FFFFFF" stroke-width="1.418" stroke-linecap="round" stroke-linejoin="round" stroke-dasharray="0,4.351" d="
                                    M485.133,336.716c21.976-1.638,40.482-15.596,48.751-34.972"></path>
                            </g>
                            <g>
                                <defs>
                                    <rect id="SVGID_11_" x="407" y="205.636" width="147.486" height="148.364"></rect>
                                </defs>
                                <clipPath id="SVGID_12_">
                                    <use xlink:href="#SVGID_11_" overflow="visible"></use>
                                </clipPath>

                                    <path clip-path="url(#SVGID_12_)" fill="none" stroke="#FFFFFF" stroke-width="1.418" stroke-linecap="round" stroke-linejoin="round" d="
                                    M534.699,299.727L534.699,299.727 M480.786,336.878L480.786,336.878 M438.703,318.6L438.703,318.6"></path>
                            </g>
                            <g>
                                <defs>
                                    <rect id="SVGID_13_" x="407" y="205.636" width="147.486" height="148.364"></rect>
                                </defs>
                                <clipPath id="SVGID_14_">
                                    <use xlink:href="#SVGID_13_" overflow="visible"></use>
                                </clipPath>
                                <polygon clip-path="url(#SVGID_14_)" fill="#FFFFFF" points="483.773,323.141 489.184,319.082 482.467,319.082 480.484,312.811
                                    478.455,319.082 471.762,319.082 477.22,323.141 475.098,329.577 480.484,325.611 485.872,329.577 		"></polygon>
                            </g>
                        </g>
                        <polygon fill="#FFFFFF" points="465.203,321.436 468.409,319.029 464.429,319.029 463.254,315.312 462.052,319.029 458.086,319.029
                            461.32,321.436 460.062,325.248 463.254,322.898 466.447,325.248 "></polygon>
                        <polygon fill="#FFFFFF" points="499.417,321.367 502.623,318.962 498.643,318.962 497.468,315.245 496.266,318.962 492.3,318.962
                            495.534,321.367 494.275,325.182 497.468,322.832 500.661,325.182 "></polygon>
                        <g>
                            <g>
                                <defs>
                                    <rect id="SVGID_15_" x="407" y="205.636" width="147.486" height="148.364"></rect>
                                </defs>
                                <clipPath id="SVGID_16_">
                                    <use xlink:href="#SVGID_15_" overflow="visible"></use>
                                </clipPath>
                                <path clip-path="url(#SVGID_16_)" fill="#FFFFFF" d="M508.474,252.495v-1.812h0.923c0.88,0,1.267,0.235,1.267,0.9
                                    s-0.387,0.912-1.267,0.912H508.474z M506.371,256.881h2.103v-2.756h0.591l1.533,2.756h2.273l-1.684-3.034
                                    c1.039-0.354,1.563-1.072,1.563-2.316c0-1.909-1.243-2.585-3.28-2.585h-3.101L506.371,256.881L506.371,256.881z M499.562,256.881
                                    h5.844v-1.727h-3.699v-1.469h2.51v-1.673h-2.51v-1.287h3.518v-1.78h-5.661L499.562,256.881L499.562,256.881z M489.771,256.881
                                    h1.908v-5.019h0.021c0.172,1.04,0.269,1.394,0.451,2.038l0.814,2.98h1.887l0.838-2.98c0.172-0.612,0.301-1.116,0.43-1.931h0.021
                                    v4.911h2.049v-7.936h-2.906l-1.254,5.384h-0.021l-1.395-5.384h-2.843V256.881L489.771,256.881z M484.389,253.878l0.762-2.197
                                    h0.021l0.73,2.197H484.389z M481.418,256.881h1.951l0.516-1.479h2.498l0.482,1.479h2.166l-2.811-7.968h-1.994L481.418,256.881z
                                     M477.118,257.031c1.189,0,1.887-0.814,1.995-1.201h0.021v1.051h1.685v-4.086h-3.196v1.566h1.158
                                    c-0.226,0.579-0.708,0.954-1.395,0.954c-0.567,0-1.662-0.246-1.662-2.466c0-2.231,1.223-2.285,1.566-2.285
                                    c0.622,0,1.083,0.344,1.394,1.362l1.963-0.548c-0.558-2.08-1.845-2.584-3.347-2.584c-2.358,0-3.731,1.599-3.731,4.086
                                    C473.567,255.272,474.586,257.031,477.118,257.031"></path>
                            </g>
                            <g>
                                <defs>
                                    <rect id="SVGID_17_" x="407" y="205.636" width="147.486" height="148.364"></rect>
                                </defs>
                                <clipPath id="SVGID_18_">
                                    <use xlink:href="#SVGID_17_" overflow="visible"></use>
                                </clipPath>
                                <path clip-path="url(#SVGID_18_)" fill="#FFFFFF" d="M484.581,247.282c2.166,0,3.078-1.169,3.464-2.777l-2.027-0.451
                                    c-0.246,0.987-0.59,1.513-1.426,1.513c-1.062,0-1.586-0.943-1.586-2.402c0-1.479,0.504-2.348,1.564-2.348
                                    c0.825,0,1.126,0.6,1.341,1.361l2.026-0.601c-0.332-1.416-1.19-2.531-3.356-2.531c-2.016,0-3.721,1.212-3.721,4.118
                                    C480.86,246.07,482.49,247.282,484.581,247.282 M476.066,242.971v-2.036h0.923c0.997,0,1.265,0.418,1.265,1.018
                                    c0,0.601-0.268,1.019-1.265,1.019L476.066,242.971L476.066,242.971z M473.943,247.132h2.123v-2.53h0.848
                                    c1.555,0,3.431-0.354,3.431-2.702c0-2.35-1.736-2.703-3.431-2.703h-2.971V247.132L473.943,247.132z"></path>
                            </g>
                            <g>
                                <defs>
                                    <rect id="SVGID_19_" x="407" y="205.636" width="147.486" height="148.364"></rect>
                                </defs>
                                <clipPath id="SVGID_20_">
                                    <use xlink:href="#SVGID_19_" overflow="visible"></use>
                                </clipPath>
                                <path clip-path="url(#SVGID_20_)" fill="#FFFFFF" d="M538.023,288.402c-2.29,0.467-3.372-1.502-5.9-3.771l-0.984-17.567
                                    c1.555-1.351,3.521-2.624,5.506-3.028c3.206-0.653,4.925,1.145,5.747,5.19C543.525,274.801,543.598,287.27,538.023,288.402
                                     M533.873,294.575c13.59-2.767,22.959-16.121,20.053-30.398c-1.412-6.948-6.545-10.674-11.965-9.571
                                    c-4.504,0.917-7.475,3.905-10.043,8.086l-0.795,0.003l0.326-26.543l-1.808-0.666l-15.869,6.806l0.161,2.353l5.895,2.241
                                    l-0.121,47.63C523.928,295.326,528.758,295.616,533.873,294.575 M487.268,304.054c4.732-0.963,8.267-4.702,11.947-9.665
                                    l0.795-0.003c0.287,3.759,2.07,6.655,7.262,5.601c3.816-0.777,7.277-2.912,10.493-5.872l-0.786-1.908
                                    c-6.048,0.754-6.385,0.663-6.322-3.722l0.354-26.788l-1.805-0.666l-15.334,6.697l0.465,2.29l5.311,2.26l-0.186,18.247
                                    c-2.467,2.328-4.724,3.742-6.557,4.115c-3.283,0.668-4.496-1.391-4.359-6.188l0.629-22.312l-1.805-0.667l-15.184,6.667
                                    l0.161,2.354l5.37,2.167l-0.425,14.716C477.075,299.29,480.09,305.516,487.268,304.054 M466.311,307.404
                                    c3.741-0.764,7.202-2.897,10.646-5.903l-0.786-1.908c-6.583,0.862-6.859,0.681-6.75-3.477l0.42-48.349l-1.805-0.666l-15.869,6.807
                                    l0.161,2.353l6.18,2.241l-0.307,41.09C458.053,305.506,460.049,308.677,466.311,307.404 M437.803,313.441
                                    c4.811-0.979,10.38-3.305,14.101-5.73l0.226-14.914l-2.737-0.557l-7.378,14.541c-1.189,0.799-2.67,1.338-4.196,1.648
                                    c-5.269,1.071-12.365-0.982-14.788-12.894c-2.145-10.537,0.29-27.491,10.827-29.634c6.337-1.289,9.879,2.441,14.925,12.786
                                    l3.252-0.821l-0.755-20.52l-2.673,0.544l-2.739,3.341c-3.502-0.799-8.347-0.768-13.385,0.258
                                    c-17.638,3.589-27.406,20.443-24.206,36.173C411.319,312.628,424.06,316.238,437.803,313.441"></path>
                            </g>
                            <g>
                                <defs>
                                    <rect id="SVGID_21_" x="407" y="205.636" width="147.486" height="148.364"></rect>
                                </defs>
                                <clipPath id="SVGID_22_">
                                    <use xlink:href="#SVGID_21_" overflow="visible"></use>
                                </clipPath>
                                <path clip-path="url(#SVGID_22_)" fill="#FFFFFF" d="M419.292,317.081c-0.065,0.431-0.137,0.858-0.134,1.291
                                    c0.007,1.056,0.174,2.09,0.498,3.098c0.759,2.359,2.095,4.347,3.939,6.003c1.123,1.006,2.381,1.799,3.804,2.323
                                    c1.047,0.388,2.126,0.612,3.249,0.601c0.958-0.01,1.888,0.162,2.795,0.451c2.6,0.829,4.714,2.348,6.378,4.488
                                    c0.942,1.214,1.61,2.562,1.929,4.074c0.033,0.154,0.083,0.308,0.133,0.459c0.429,1.294,1.128,2.434,2.035,3.447
                                    c1.421,1.588,3.152,2.735,5.133,3.521c1.581,0.627,3.223,0.955,4.926,0.931c0.506-0.009,1.013-0.078,1.515-0.146
                                    c0.597-0.078,1.176-0.238,1.737-0.454c0.071-0.028,0.139-0.069,0.223-0.112c-0.062-0.173-0.116-0.33-0.171-0.486
                                    c-0.002-0.002-0.005-0.004-0.009-0.006c-0.001-0.026-0.004-0.051-0.006-0.076c0.003,0.023,0.006,0.047,0.011,0.07
                                    c0.001,0.004,0.003,0.008,0.004,0.012c0.05,0.035,0.109,0.062,0.144,0.105c0.072,0.094,0.128,0.196,0.201,0.314
                                    c0.097-0.038,0.183-0.067,0.265-0.106c1.445-0.671,2.979-0.915,4.56-0.896c0.666,0.007,1.331,0.074,1.992,0.188
                                    c1.204,0.209,2.361,0.563,3.464,1.089c1.542,0.732,2.88,1.726,3.917,3.094c0.088,0.117,0.19,0.223,0.292,0.328
                                    c0.575,0.6,1.222,1.112,1.934,1.543c1.92,1.16,4.027,1.674,6.251,1.763c0.965,0.038,1.922-0.052,2.872-0.22
                                    c1.34-0.235,2.611-0.662,3.797-1.328c1.012-0.565,1.906-1.272,2.633-2.182c0.352-0.438,0.754-0.826,1.189-1.183
                                    c2.008-1.636,4.34-2.47,6.896-2.722c0.918-0.09,1.841-0.068,2.76,0.061c1.04,0.145,2.042,0.412,2.979,0.883
                                    c0.981,0.489,2.024,0.76,3.106,0.863c1.148,0.109,2.298,0.062,3.433-0.162c1.994-0.398,3.821-1.179,5.471-2.361
                                    c1.406-1.01,2.576-2.233,3.417-3.752c0.336-0.606,0.622-1.238,0.78-1.914c0.252-1.07,0.674-2.068,1.262-3
                                    c1.281-2.031,3.023-3.566,5.167-4.649c1.597-0.806,3.282-1.253,5.091-1.212c0.385,0.008,0.773-0.035,1.154-0.098
                                    c1.144-0.189,2.228-0.563,3.236-1.125c2.785-1.551,4.772-3.811,6.004-6.729c0.5-1.185,0.793-2.422,0.828-3.712
                                    c0.021-0.719-0.008-1.434-0.177-2.139c-0.075-0.309-0.127-0.625-0.159-0.941c-0.105-1.021-0.061-2.041,0.131-3.055
                                    c0.439-2.324,1.436-4.383,2.986-6.174c0.963-1.109,2.096-2.006,3.445-2.619c0.182-0.082,0.354-0.183,0.526-0.287
                                    c1.311-0.803,2.356-1.871,3.186-3.151c1.523-2.358,2.229-4.948,2.171-7.748c-0.021-0.976-0.154-1.933-0.423-2.869
                                    c-0.274-0.954-0.706-1.831-1.26-2.646l-1.321,1.709c0.247,0.467,0.453,0.952,0.604,1.467c0.305,1.058,0.397,2.137,0.346,3.233
                                    c-0.08,1.711-0.519,3.326-1.305,4.849c-0.463,0.894-1.043,1.702-1.768,2.403c-0.549,0.531-1.159,0.973-1.855,1.307
                                    c-1.705,0.816-3.106,2.011-4.281,3.477c-1.565,1.961-2.584,4.176-3.062,6.635c-0.229,1.181-0.269,2.375-0.17,3.572
                                    c0.03,0.355,0.076,0.715,0.162,1.062c0.353,1.429,0.191,2.821-0.256,4.198c-0.914,2.8-3.15,5.346-5.772,6.59
                                    c-0.813,0.386-1.67,0.639-2.565,0.738c-0.265,0.029-0.533,0.004-0.802,0.004c-1.513,0.033-2.972,0.328-4.373,0.888
                                    c-3.045,1.216-5.467,3.188-7.229,5.946c-0.67,1.05-1.162,2.183-1.457,3.393c-0.175,0.721-0.477,1.382-0.868,2.004
                                    c-0.758,1.202-1.769,2.157-2.951,2.939c-1.387,0.918-2.9,1.529-4.543,1.806c-1.371,0.231-2.741,0.22-4.082-0.208
                                    c-0.293-0.092-0.58-0.201-0.854-0.336c-1.053-0.51-2.154-0.852-3.31-1.042c-0.955-0.157-1.911-0.192-2.877-0.161
                                    c-2.084,0.071-4.064,0.566-5.946,1.455c-1.714,0.812-3.2,1.915-4.395,3.396c-0.388,0.48-0.87,0.862-1.383,1.205
                                    c-0.933,0.621-1.956,1.031-3.043,1.289c-1.005,0.236-2.026,0.356-3.061,0.316c-1.785-0.068-3.491-0.454-5.057-1.346
                                    c-0.82-0.467-1.534-1.055-2.124-1.797c-0.922-1.162-2.06-2.082-3.342-2.826c-1.633-0.945-3.388-1.549-5.255-1.85
                                    c-1.209-0.195-2.423-0.232-3.637-0.131c-1.407,0.117-2.763,0.46-4.041,1.07c-0.706,0.338-1.454,0.515-2.23,0.602
                                    c-0.467,0.051-0.933,0.08-1.401,0.049c-1.803-0.121-3.484-0.64-5.052-1.529c-1.088-0.619-2.06-1.383-2.878-2.33
                                    c-0.604-0.701-1.1-1.471-1.431-2.337c-0.075-0.198-0.153-0.398-0.197-0.605c-0.416-1.924-1.293-3.622-2.534-5.14
                                    c-1.85-2.26-4.153-3.887-6.938-4.818c-0.812-0.271-1.643-0.468-2.498-0.537c-0.319-0.027-0.64-0.07-0.958-0.064
                                    c-1.46,0.023-2.794-0.396-4.042-1.113c-1.717-0.984-3.055-2.355-4.08-4.031c-0.609-0.994-1.053-2.058-1.296-3.199
                                    c-0.163-0.767-0.207-1.537-0.138-2.313C420.566,317.486,419.9,317.275,419.292,317.081 M542.158,243.018
                                    c0.109-0.454,0.154-0.918,0.172-1.382c0.039-1.003-0.09-1.989-0.347-2.957c-0.544-2.043-1.563-3.831-2.973-5.405
                                    c-1.203-1.348-2.609-2.432-4.271-3.173c-1.244-0.556-2.541-0.877-3.918-0.859c-0.832,0.012-1.65-0.128-2.447-0.362
                                    c-3.129-0.922-5.564-2.768-7.33-5.486c-0.612-0.944-1.043-1.971-1.279-3.076c-0.047-0.22-0.116-0.436-0.189-0.648
                                    c-0.502-1.462-1.343-2.713-2.426-3.806c-1.489-1.504-3.259-2.569-5.254-3.272c-1.102-0.389-2.237-0.623-3.399-0.704
                                    c-0.854-0.062-1.709-0.024-2.558,0.129c-0.778,0.141-1.532,0.349-2.247,0.692c-1.097,0.528-2.263,0.812-3.47,0.897
                                    c-1.014,0.073-2.027,0.04-3.038-0.127c-1.503-0.249-2.927-0.717-4.261-1.449c-1.182-0.648-2.229-1.465-3.067-2.524
                                    c-0.562-0.707-1.22-1.304-1.964-1.809c-1.93-1.31-4.096-1.91-6.403-2.039c-0.935-0.052-1.868-0.005-2.798,0.14
                                    c-1.317,0.204-2.577,0.572-3.766,1.176c-1.192,0.605-2.239,1.394-3.077,2.444c-0.333,0.418-0.721,0.786-1.135,1.124
                                    c-2.086,1.7-4.511,2.544-7.173,2.75c-0.771,0.061-1.548,0.042-2.322-0.056c-1.123-0.141-2.196-0.433-3.214-0.929
                                    c-0.203-0.1-0.41-0.195-0.621-0.276c-1.083-0.419-2.215-0.595-3.369-0.626c-0.871-0.023-1.735,0.074-2.589,0.247
                                    c-1.812,0.368-3.492,1.069-5.025,2.102c-1.437,0.965-2.648,2.149-3.552,3.63c-0.438,0.719-0.802,1.476-0.997,2.296
                                    c-0.263,1.111-0.708,2.143-1.329,3.098c-1.332,2.049-3.123,3.584-5.328,4.646c-1.538,0.739-3.159,1.137-4.876,1.099
                                    c-0.417-0.01-0.829,0.038-1.236,0.112c-1.138,0.207-2.218,0.588-3.223,1.159c-2.898,1.65-4.921,4.045-6.095,7.146
                                    c-0.523,1.386-0.734,2.824-0.633,4.304c0.021,0.29,0.052,0.584,0.12,0.866c0.328,1.366,0.347,2.74,0.092,4.114
                                    c-0.466,2.517-1.56,4.73-3.319,6.608c-0.893,0.953-1.92,1.727-3.118,2.27c-0.206,0.093-0.402,0.21-0.596,0.33
                                    c-1.471,0.917-2.597,2.162-3.46,3.646c-1.223,2.104-1.828,4.376-1.85,6.806c-0.01,1.19,0.142,2.357,0.493,3.497
                                    c0.32,1.038,0.8,1.994,1.466,2.856l1.291-1.766c-0.372-0.604-0.677-1.238-0.868-1.929c-0.354-1.284-0.41-2.591-0.258-3.911
                                    c0.162-1.413,0.565-2.754,1.216-4.021c0.472-0.918,1.062-1.751,1.809-2.471c0.55-0.531,1.161-0.973,1.857-1.305
                                    c1.494-0.71,2.756-1.724,3.839-2.961c1.784-2.039,2.935-4.392,3.468-7.04c0.174-0.86,0.26-1.733,0.249-2.613
                                    c-0.01-0.785-0.091-1.564-0.267-2.331c-0.181-0.789-0.185-1.585-0.07-2.377c0.338-2.334,1.444-4.285,3.065-5.967
                                    c1.02-1.059,2.199-1.897,3.574-2.445c0.889-0.354,1.805-0.547,2.771-0.543c1.608,0.007,3.158-0.324,4.642-0.94
                                    c3.094-1.286,5.535-3.333,7.257-6.205c0.564-0.94,0.989-1.944,1.247-3.01c0.229-0.947,0.658-1.793,1.231-2.572
                                    c0.843-1.143,1.909-2.038,3.129-2.759c1.218-0.719,2.525-1.207,3.917-1.461c0.632-0.115,1.271-0.187,1.914-0.166
                                    c0.871,0.028,1.729,0.146,2.553,0.451c0.212,0.079,0.42,0.169,0.624,0.268c1.064,0.516,2.185,0.844,3.353,1.035
                                    c1.063,0.174,2.133,0.211,3.198,0.13c2.987-0.229,5.714-1.176,8.091-3.025c0.613-0.477,1.177-1.007,1.662-1.612
                                    c0.628-0.784,1.408-1.375,2.292-1.84c0.976-0.513,2.018-0.829,3.105-1.012c0.85-0.144,1.702-0.19,2.558-0.142
                                    c1.812,0.104,3.531,0.55,5.083,1.524c0.684,0.429,1.28,0.952,1.785,1.585c1.055,1.322,2.371,2.331,3.86,3.123
                                    c1.462,0.776,3.019,1.277,4.647,1.561c1.179,0.204,2.369,0.241,3.558,0.155c1.461-0.105,2.873-0.444,4.203-1.08
                                    c0.668-0.32,1.373-0.51,2.109-0.587c0.252-0.026,0.505-0.058,0.758-0.067c1.34-0.048,2.633,0.192,3.889,0.64
                                    c1.688,0.6,3.18,1.513,4.433,2.792c0.831,0.847,1.485,1.809,1.886,2.931c0.054,0.15,0.101,0.303,0.136,0.458
                                    c0.408,1.836,1.228,3.479,2.396,4.948c1.881,2.362,4.248,4.053,7.132,5.008c0.851,0.282,1.724,0.476,2.621,0.538
                                    c0.306,0.021,0.613,0.065,0.919,0.059c1.022-0.023,1.986,0.218,2.917,0.612c1.453,0.614,2.675,1.549,3.72,2.713
                                    c1.203,1.339,2.082,2.857,2.545,4.601c0.191,0.723,0.293,1.457,0.285,2.206c-0.006,0.4-0.049,0.796-0.143,1.185
                                    c-0.278,1.175-0.34,2.369-0.238,3.564c0.118,1.39,0.514,2.727,1.02,4.015l2.058-0.216c-0.486-1.1-0.82-2.264-0.979-3.5
                                    C541.857,245.306,541.883,244.155,542.158,243.018"></path>
                            </g>
                        </g>
                    </svg>